<mxfile host="app.diagrams.net" modified="2021-02-21T15:50:33.466Z" agent="5.0 (Macintosh; Intel Mac OS X 10_15_7) AppleWebKit/605.1.15 (KHTML, like Gecko) Version/14.0.2 Safari/605.1.15" etag="mFBUQLHtSfeBuHogip4Q" version="14.4.2" type="github">
  <diagram id="PddwCoc8pTNlXu5r-jNh" name="Page-1">
    <mxGraphModel dx="1419" dy="952" grid="1" gridSize="10" guides="1" tooltips="1" connect="1" arrows="1" fold="1" page="1" pageScale="1" pageWidth="1169" pageHeight="827" math="0" shadow="0">
      <root>
        <mxCell id="0" />
        <mxCell id="1" parent="0" />
        <mxCell id="akpqNs-Gpo21S4tmZgW2-4" style="edgeStyle=orthogonalEdgeStyle;rounded=0;orthogonalLoop=1;jettySize=auto;html=1;" edge="1" parent="1" source="akpqNs-Gpo21S4tmZgW2-1" target="akpqNs-Gpo21S4tmZgW2-3">
          <mxGeometry relative="1" as="geometry" />
        </mxCell>
        <mxCell id="akpqNs-Gpo21S4tmZgW2-1" value="Actor" style="shape=umlActor;verticalLabelPosition=bottom;verticalAlign=top;html=1;outlineConnect=0;sketch=10;" vertex="1" parent="1">
          <mxGeometry x="110" y="220" width="130" height="160" as="geometry" />
        </mxCell>
        <mxCell id="akpqNs-Gpo21S4tmZgW2-2" style="edgeStyle=orthogonalEdgeStyle;rounded=0;orthogonalLoop=1;jettySize=auto;html=1;exitX=1;exitY=0.3333333333333333;exitDx=0;exitDy=0;exitPerimeter=0;" edge="1" parent="1" source="akpqNs-Gpo21S4tmZgW2-1" target="akpqNs-Gpo21S4tmZgW2-1">
          <mxGeometry relative="1" as="geometry" />
        </mxCell>
        <mxCell id="akpqNs-Gpo21S4tmZgW2-3" value="" style="shape=step;perimeter=stepPerimeter;whiteSpace=wrap;html=1;fixedSize=1;sketch=10;" vertex="1" parent="1">
          <mxGeometry x="520" y="370" width="120" height="80" as="geometry" />
        </mxCell>
      </root>
    </mxGraphModel>
  </diagram>
</mxfile>
